<?xml version="1.0" ?><svg id="Layer_1" style="enable-background:new 0 0 100 100;" version="1.1" viewBox="0 0 100 100" xml:space="preserve" xmlns="http://www.w3.org/2000/svg" xmlns:xlink="http://www.w3.org/1999/xlink"><style type="text/css">
	.st0{fill:#010101;}
</style><path class="st0" d="M26,49.9c0-13.2,10.8-24,24-24s24,10.8,24,24c0,0.9,1.1,0.9,1.1,0C75.1,36,63.8,24.8,50,24.8S24.9,36,24.9,49.9  C24.9,50.8,26,50.8,26,49.9z"/><path class="st0" d="M13.7,49.3H0.5c-0.7,0-0.7,1,0,1h13.2C14.4,50.3,14.5,49.3,13.7,49.3z"/><path class="st0" d="M99.5,49.3H86.2c-0.7,0-0.7,1,0,1h13.2C100.2,50.3,100.2,49.3,99.5,49.3z"/><path class="st0" d="M75.9,24.7l9.4-9.4c0.5-0.5-0.2-1.2-0.7-0.7L75.2,24C74.7,24.5,75.4,25.2,75.9,24.7z"/><path class="st0" d="M24.1,24.7c0.5,0.5,1.2-0.2,0.7-0.7l-9.3-9.3c-0.5-0.5-1.2,0.2-0.7,0.7L24.1,24.7z"/><path class="st0" d="M50.5,13.8V0.6c0-0.7-1-0.7-1,0v13.2C49.5,14.5,50.5,14.5,50.5,13.8z"/><path class="st0" d="M99.2,61H0.5c-0.7,0-0.7,1,0,1h98.7C100.2,62,100.2,61,99.2,61z"/><path class="st0" d="M99.2,72.7H0.5c-0.7,0-0.7,1,0,1h98.7C100.2,73.7,100.2,72.7,99.2,72.7z"/><path class="st0" d="M99.3,84.4H0.5c-0.7,0-0.7,1,0,1h98.7C100.3,85.4,100.2,84.4,99.3,84.4z"/></svg>