<?xml version="1.0" ?><svg id="Layer_1" style="enable-background:new 0 0 100 100;" version="1.1" viewBox="0 0 100 100" xml:space="preserve" xmlns="http://www.w3.org/2000/svg" xmlns:xlink="http://www.w3.org/1999/xlink"><path class="st0" d="M25.8,64.7c0-13.3,10.8-24,24-24s24,10.8,24,24c0,0.7,1,0.7,1,0c0-13.8-11.2-25.1-25.1-25.1  c-13.8,0-25.1,11.2-25.1,25.1C24.8,65.3,25.8,65.3,25.8,64.7z"/><path class="st0" d="M75.8,39l9.4-9.4c0.5-0.5-0.2-1.2-0.7-0.7L75,38.2C74.6,38.7,75.3,39.4,75.8,39z"/><path class="st0" d="M23.9,38.9c0.5,0.5,1.2-0.2,0.7-0.7l-9.3-9.4c-0.5-0.5-1.2,0.2-0.7,0.7L23.9,38.9z"/><path class="st0" d="M50.3,28.5V15.2c0-0.7-1-0.7-1,0v13.2C49.3,29.1,50.3,29.1,50.3,28.5z"/><path d="M74.4,75.4h-49c-0.8,0-0.8-1,0-1h49C75.1,74.4,75.1,75.4,74.4,75.4z"/><path d="M66.9,85.3h-34c-0.8,0-0.8-1,0-1h34C67.6,84.3,67.6,85.3,66.9,85.3z"/></svg>